<?xml version="1.0" encoding="utf-8"?>
<!-- Generator: Adobe Illustrator 22.1.0, SVG Export Plug-In . SVG Version: 6.00 Build 0)  -->
<svg version="1.1" id="Layer_1" xmlns="http://www.w3.org/2000/svg" xmlns:xlink="http://www.w3.org/1999/xlink" x="0px" y="0px"
	 viewBox="0 0 48 48" style="enable-background:new 0 0 48 48;" xml:space="preserve">
<style type="text/css">
	.st0{fill:#FFFFFF;}
</style>
<g id="info-sign_2_">
	<path class="st0" d="M24,11.8c-6.8,0-12.2,5.5-12.2,12.2S17.2,36.2,24,36.2S36.2,30.8,36.2,24S30.8,11.8,24,11.8z M23,17.5
		c0-0.3,0.2-0.5,0.5-0.5h2c0.3,0,0.5,0.2,0.5,0.5v2c0,0.3-0.2,0.5-0.5,0.5h-2c-0.3,0-0.5-0.2-0.5-0.5V17.5z M28,30.5
		c0,0.3-0.2,0.5-0.5,0.5h-6c-0.3,0-0.5-0.2-0.5-0.5v-2c0-0.3,0.2-0.5,0.5-0.5H23v-4h-1.5c-0.3,0-0.5-0.2-0.5-0.5v-2
		c0-0.3,0.2-0.5,0.5-0.5h4c0.3,0,0.5,0.2,0.5,0.5V28h1.5c0.3,0,0.5,0.2,0.5,0.5V30.5z"/>
</g>
</svg>
